<svg xmlns="http://www.w3.org/2000/svg" width="48" height="48" viewBox="0 0 48 48">
    <defs>
        <linearGradient id="a" x1="50%" x2="50%" y1="0%" y2="100%">
            <stop offset="0%" stop-color="#F4F6F8"/>
            <stop offset="100%" stop-color="#E6EAEE"/>
        </linearGradient>
    </defs>
    <g fill="none" fill-rule="evenodd">
        <path fill="url(#a)" fill-rule="nonzero" d="M24 0c13.255 0 24 10.745 24 24S37.255 48 24 48 0 37.255 0 24 10.745 0 24 0z"/>
        <g stroke="#0F141B" stroke-linecap="round" stroke-linejoin="round">
            <path d="M32.276 22.345a8.276 8.276 0 1 0-16.552 0h16.552M24 22.345V20.69M24 14.483v2.069M20.59 15.239l.875 1.875M17.819 17.365l1.585 1.33M16.206 20.463l1.999.536M27.436 15.239l-.875 1.875M30.207 17.365l-1.585 1.33M31.82 20.463L29.82 21"/>
            <path d="M32.276 35.586H15.724a3.31 3.31 0 0 1-3.31-3.31V15.724a3.31 3.31 0 0 1 3.31-3.31h16.552a3.31 3.31 0 0 1 3.31 3.31v16.552a3.31 3.31 0 0 1-3.31 3.31z"/>
        </g>
    </g>
</svg>
