<?xml version="1.0" encoding="UTF-8"?>
<svg viewBox="0 0 250 200" xmlns="http://www.w3.org/2000/svg">
    <g fill="none" fill-rule="evenodd">
        <path d="M176 135H93a7 7 0 0 1 0-14H54a7 7 0 0 1 0-14h40a7 7 0 0 0 0-14H69a7 7 0 0 1 0-14h40a7 7 0 0 1 0-14h98a7 7 0 0 1 0 14h-40a7 7 0 0 1 0 14h22a7 7 0 0 1 0 14h-10.174c-4.874 0-8.826 3.134-8.826 7 0 2.577 2 4.91 6 7a7 7 0 0 1 0 14zm31-28a7 7 0 1 1 0-14 7 7 0 0 1 0 14z"
              fill="#F3F7FF"/>
        <path d="M69.952 70.518l83.025-13.292a3 3 0 0 1 3.438 2.498l8.122 51.832a3 3 0 0 1-2.49 3.426l-83.024 13.292a3 3 0 0 1-3.438-2.498l-8.122-51.832a3 3 0 0 1 2.49-3.426z"
              fill="#FFF"/>
        <path d="M83.345 127.423l-3.184.525c-2.186.36-4.24-1.192-4.586-3.468L68.05 75.04c-.346-2.275 1.145-4.412 3.332-4.773l80.176-13.214c2.187-.36 4.24 1.192 4.587 3.468l.807 5.3m.571 3.756l.477 3.133"
              stroke="#75A4FE" stroke-width="2.5" stroke-linecap="round"/>
        <path d="M73.977 72.792l75.76-11.831a3 3 0 0 1 3.425 2.488l7.36 45.82a3 3 0 0 1-2.499 3.44l-75.76 11.83a3 3 0 0 1-3.425-2.488l-7.36-45.82a3 3 0 0 1 2.499-3.44z"
              fill="#E8F0FE"/>
        <rect stroke="#75A4FE" stroke-width="2.5" fill="#FFF" x="88.25" y="77.25"
              width="86.5" height="56.5" rx="4"/>
        <path fill="#E8F0FE" d="M89.5 89h84v14h-84z"/>
        <path d="M174.171 89h-65.84 65.84zm-6 13h-78.84 78.84zm-43.108 19H96.755h28.308zm-21.774-32h-7.196 7.196z"
              stroke="#75A4FE" stroke-width="2.5" stroke-linecap="round"
              stroke-linejoin="round"/>
    </g>
</svg>