<svg xmlns="http://www.w3.org/2000/svg" width="48" height="48" viewBox="0 0 48 48">
    <defs>
        <linearGradient id="a" x1="50%" x2="50%" y1="0%" y2="100%">
            <stop offset="0%" stop-color="#EEF8FF"/>
            <stop offset="100%" stop-color="#D8EEFF"/>
        </linearGradient>
    </defs>
    <g fill="none" fill-rule="evenodd">
        <path fill="url(#a)" fill-rule="nonzero" d="M24 0c13.255 0 24 10.745 24 24S37.255 48 24 48 0 37.255 0 24 10.745 0 24 0z"/>
        <g stroke="#2895F1" stroke-linecap="round" stroke-linejoin="round">
            <path d="M13.291 35.357h.001a.996.996 0 0 0 1.412.002c.722-.72 6.026-6.027 6.365-6.366 2.345-2.345 3.557-2.917 4.417-2.979.912-.066 1.778-.392 2.425-1.039 3.884-3.884 9.149-9.709 6.593-12.245-.109.087-6.517 6.495-21.21 21.21a1.004 1.004 0 0 0-.003 1.417zM14 14.23l4.5 4.5M12.5 16.73l3.861 4.104c.64.64 1.507.952 2.41 1.017.587.043 1.349.34 2.512 1.26M22.88 21.512c-1.024-1.296-1.272-2.09-1.265-2.707.01-.78-.322-1.525-.875-2.077l-4.63-3.923M26.267 27.91l7.526 7.527a.999.999 0 1 0 1.414-1.414l-6.872-6.873"/>
        </g>
    </g>
</svg>
