<svg xmlns="http://www.w3.org/2000/svg" width="80" height="80" viewBox="0 0 80 80">
    <defs>
        <linearGradient id="a" x1="50%" x2="50%" y1="0%" y2="100%">
            <stop offset="0%" stop-color="#EEF8FF"/>
            <stop offset="100%" stop-color="#D8EEFF"/>
        </linearGradient>
    </defs>
    <g fill="none" fill-rule="nonzero">
        <path fill="url(#a)" d="M40 0c22.091 0 40 17.909 40 40S62.091 80 40 80 0 62.091 0 40 17.909 0 40 0z"/>
        <path fill="#F0B97D" d="M33.988 40.19h10.548l.855 8.89 2.58 1.895 15.358 4.867s2.014 1.109 2.605 4.207c.123.64.232 5.732.332 10.117A39.847 39.847 0 0 1 40 80c-10.788 0-20.577-4.272-27.772-11.215.063-3.756.156-7.657.362-8.735.399-2.088 2.606-4.206 2.606-4.206l15.463-4.935 2.476-1.828.853-8.89z"/>
        <path fill="#324A5E" d="M30.658 50.908l-15.463 4.935s-2.207 2.118-2.605 4.207c-.207 1.078-.3 4.979-.363 8.734C19.422 75.728 29.212 80 40 80c10.053 0 19.24-3.71 26.267-9.833-.1-4.385-.21-9.476-.332-10.117-.592-3.098-2.606-4.207-2.606-4.207L47.97 50.975c-2.544 7.463-14.887 7.152-17.312-.067z"/>
        <path fill="#FED198" d="M26.093 26.69c-3.309-.588-.488 9.292 1.927 7.819l1.297 3.807c1.168 3.43 4.114 6.553 6.357 9.026.875.965 6.236.949 7.102.037 2.483-2.61 5.433-5.544 6.54-9.081l1.187-3.789c2.42 1.471 5.233-8.405 1.928-7.819.229-7.69-5.209-15.15-13.17-15.184-7.96.034-13.397 7.494-13.169 15.184z"/>
        <path fill="#666" d="M48.757 13.02c.935-.108 4.31 2.975 4.715 6.545.404 3.57-.211 7.251-.211 7.251-1.652.358-1.998 4.128-1.998 4.128l-.716.031-.51-2.572c-2.959-1.854 1.166-9.18-1.792-9.822-5.065 4.172-12.579 5.715-19.134 4.644-1.84.246.836 2.57.06 5.246-.573.999-.231 2.575-.231 2.575l-.856.107s-.53-4.475-2.18-4.456c-.763-2.062-.607-3.368-.467-5.21.776-10.21 13.747-16.618 23.32-8.467z"/>
        <path fill="#FFF" d="M49.89 51.583c-3.314 9.57-17.987 9.534-21.265-.026l2.033-.649c2.425 7.219 14.768 7.53 17.312.067l1.92.609v-.001z"/>
        <path fill="#15BDB1" d="M23.1 76.262l.168-2.225.542 2.549a35.61 35.61 0 0 1-.71-.324zm32.371.635c-.3.125-.6.247-.902.366l.686-3.226.216 2.86z"/>
    </g>
</svg>
