<svg xmlns="http://www.w3.org/2000/svg" width="80" height="80" viewBox="0 0 80 80">
    <defs>
        <linearGradient id="a" x1="50%" x2="50%" y1="0%" y2="100%">
            <stop offset="0%" stop-color="#EEF8FF"/>
            <stop offset="100%" stop-color="#D8EEFF"/>
        </linearGradient>
    </defs>
    <g fill="none" fill-rule="nonzero">
        <circle cx="40" cy="40" r="40" fill="url(#a)"/>
        <path fill="#000" d="M37.138 61.277c-.635 0-1.235-.182-1.87-.182-.63 0-1.206.182-1.865.182h3.735zM52.866 61.782c-.635 0-1.23-.182-1.865-.182s-1.24.182-1.865.182h3.73z"/>
        <g transform="translate(11 18)">
            <circle cx="28.668" cy="21" r="20.712" fill="#FFF"/>
            <g transform="translate(16.58 .281)">
                <path fill="#EFEFEF" d="M12.087.007h-.045V41.43h.045c11.44 0 20.712-9.272 20.712-20.711C32.8 9.279 23.526.007 12.087.007z"/>
                <circle cx="12.087" cy="20.719" r="12.049" fill="#DEF0FF"/>
            </g>
            <path fill="#B8DEFF" d="M28.668 8.952h-.046v24.096h.046c6.654 0 12.048-5.394 12.048-12.048S35.322 8.952 28.668 8.952z"/>
            <path fill="#2895F1" d="M53.815 3.801c-1.645.058-2.925 1.46-2.925 3.106v31.294h3.701V24.089a2.37 2.37 0 0 0 2.37-2.37V6.834a3.036 3.036 0 0 0-3.146-3.033zM5.53 37.823v-21.12A1.731 1.731 0 0 0 7.11 14.98V4.344h-.911v7.755c0 .48-.39.87-.87.87h-.251a.87.87 0 0 1-.87-.87V4.344H3.152v7.755c0 .48-.39.87-.87.87h-.251a.87.87 0 0 1-.87-.87V4.344h-.91v10.635c0 .905.693 1.647 1.578 1.725v21.119H5.53z"/>
        </g>
    </g>
</svg>
