<svg xmlns="http://www.w3.org/2000/svg" width="80" height="80" viewBox="0 0 80 80">
    <defs>
        <linearGradient id="a" x1="50%" x2="50%" y1="0%" y2="100%">
            <stop offset="0%" stop-color="#FFF4EC"/>
            <stop offset="100%" stop-color="#FFE6D5"/>
        </linearGradient>
    </defs>
    <g fill="none" fill-rule="nonzero">
        <circle cx="40" cy="40" r="40" fill="url(#a)"/>
        <path fill="#FFF" d="M23.092 35.774h33.815v8.454H23.092z"/>
        <path fill="#D0D1D3" d="M23.092 40h33.815v4.227H23.092z"/>
        <path fill="#FFC91B" d="M23.093 52.68h-4.228a2.113 2.113 0 0 1-2.113-2.113V29.433c0-1.168.946-2.114 2.113-2.114h4.227c1.168 0 2.114.946 2.114 2.114v21.134a2.113 2.113 0 0 1-2.113 2.114z"/>
        <path fill="#EAA22F" d="M16.752 40v10.567c0 1.168.946 2.114 2.113 2.114h4.227a2.113 2.113 0 0 0 2.114-2.114V40h-8.454z"/>
        <path fill="#FF7F4F" d="M15.44 48.454h-1.602a1.312 1.312 0 0 1-1.313-1.312V32.858c0-.724.588-1.312 1.313-1.312h1.602c.725 0 1.312.588 1.312 1.312v14.284c0 .724-.587 1.312-1.312 1.312z"/>
        <path fill="#D35933" d="M12.525 40v7.142c0 .724.588 1.312 1.313 1.312h1.602c.725 0 1.313-.588 1.313-1.312V40h-4.228z"/>
        <path fill="#FFC91B" d="M56.907 27.32h4.227c1.168 0 2.114.946 2.114 2.113v21.134a2.113 2.113 0 0 1-2.114 2.114h-4.227a2.113 2.113 0 0 1-2.113-2.114V29.433c0-1.167.946-2.114 2.114-2.114z"/>
        <path fill="#EAA22F" d="M54.794 40v10.567c0 1.168.946 2.114 2.114 2.114h4.226a2.113 2.113 0 0 0 2.114-2.114V40h-8.454z"/>
        <path fill="#FF7F4F" d="M64.56 31.546h1.602c.725 0 1.313.588 1.313 1.312v14.284c0 .724-.588 1.312-1.313 1.312H64.56a1.312 1.312 0 0 1-1.312-1.312V32.858c0-.724.587-1.312 1.312-1.312z"/>
        <path fill="#D35933" d="M63.248 40v7.142c0 .724.587 1.312 1.312 1.312h1.603c.725 0 1.312-.588 1.312-1.312V40h-4.227z"/>
    </g>
</svg>
