<svg width="90" height="21" xmlns="http://www.w3.org/2000/svg">
    <defs>
        <linearGradient x1="50%" y1="0%" x2="50%" y2="100%" id="a">
            <stop offset="0%"/>
            <stop offset="100%"/>
        </linearGradient>
    </defs>
    <g fill-rule="nonzero" fill="none">
        <path d="M.167 9.246H8.22l-1.191 6.386h11.637A9.908 9.908 0 0 1 9.9 20.888c-5.468 0-9.9-4.401-9.9-9.831 0-.619.058-1.225.167-1.811zm.913-2.658A9.908 9.908 0 0 1 9.9 1.225c5.468 0 9.9 4.402 9.9 9.832 0 .65-.062 1.287-.184 1.901h-7.48l1.345-6.37H1.08h.001z" fill="url(#a)"/>
        <path d="M39.67 18.02v-3.2h-5.856l5.755-5.883V5.885H29.34v3.174h5.353l-5.504 5.69v3.27h10.48v.002zm4.276-7.521c.075-.903.88-2.051 2.488-2.051 1.809 0 2.463 1.123 2.513 2.05h-5zm5.278 3.15c-.352.952-1.132 1.587-2.514 1.587-1.482 0-2.764-.977-2.84-2.344h8.696c.026-.073.076-.634.076-1.147 0-3.908-2.388-6.227-6.259-6.227-3.242 0-6.232 2.49-6.232 6.397 0 4.078 3.066 6.471 6.51 6.471 3.166 0 5.151-1.759 5.755-3.858l-3.192-.88zm8.623-2.588c0-1.22.805-2.124 2.061-2.124 1.383 0 2.036.902 2.036 2.1v6.983h3.82V10.4c0-2.661-1.407-4.835-4.549-4.835-1.281 0-2.814.563-3.493 1.71V5.884h-3.695V18.02h3.82V11.06zM76.903 9.01v9.009h3.82V5.885h-8.419v-1.05c0-1.222.98-1.515 1.634-1.515.552 0 .904.074 1.08.123V.415c-.351-.17-1.13-.268-1.759-.268-3.042 0-4.775 1.903-4.775 4.687v1.05h-1.986V9.01h1.986v9.009h3.82v-9.01h4.6zm-.326-6.837c0 1.197 1.005 2.173 2.21 2.173 1.258 0 2.263-.977 2.263-2.173C81.05.952 80.044 0 78.786 0c-1.206 0-2.211.952-2.211 2.173zm10.986.171h-3.418v1.562c0 1.123-.629 1.978-1.935 1.978h-.629V9.13h2.212v5.201c0 2.417 1.584 3.906 4.172 3.906 1.206 0 1.835-.268 1.986-.342V14.82a4.883 4.883 0 0 1-1.006.122c-.829 0-1.382-.268-1.382-1.27V9.132H90V5.884h-2.438v-3.54z" fill="#000"/>
    </g>
</svg>
