<svg width="106px" height="22px" viewBox="0 0 106 22" xmlns="http://www.w3.org/2000/svg">
    <g id="8-6-2-Client-Payment-Form---Step-2" stroke="none" stroke-width="1" fill="none" fill-rule="evenodd" transform="translate(-894.000000, -390.000000)">
        <g id="2" transform="translate(326.000000, 366.000000)" fill-rule="nonzero">
            <g id="cards" transform="translate(568.000000, 24.000000)">
                <g id="credit-cards_mastercard">
                    <g id="Layer_1">
                        <path d="M1.25,0 L28.75,0 C29.4375,0 30,0.529411765 30,1.17647059 L30,18.8235294 C30,19.4705882 29.4375,20 28.75,20 L1.25,20 C0.5625,20 0,19.4705882 0,18.8235294 L0,1.17647059 C0,0.529411765 0.5625,0 1.25,0 Z" id="Shape" fill="#4361C3"></path>
                        <path d="M18.59375,6.25 C21.09375,6.25 23.125,8.28125 23.125,10.78125 C23.125,13.28125 21.09375,15.3125 18.59375,15.3125 C16.09375,15.3125 14.0625,13.28125 14.0625,10.78125 C14.0625,8.28125 16.09375,6.25 18.59375,6.25 Z" id="Shape" fill="#FFAF38"></path>
                        <rect id="Rectangle-path" fill="#FFAF38" x="14.6875" y="8.4375" width="3.125" height="1"></rect>
                        <path d="M11.40625,15.3125 C8.90625,15.3125 6.875,13.28125 6.875,10.78125 C6.875,8.28125 8.90625,6.25 11.40625,6.25 C13.90625,6.25 15.9375,8.28125 15.9375,10.78125 C15.9375,13.28125 13.90625,15.3125 11.40625,15.3125 Z" id="Shape" fill="#EB3636"></path>
                        <path d="M14.6875,12.8125 L14.6875,12.1875 L18.75,12.1875 L18.75,12.8125 L14.6875,12.8125 Z M14.6875,8.4375 L18.75,8.4375 L18.75,9.0625 L14.6875,9.0625 L14.6875,8.4375 Z M18.4375,10.3125 L14.375,10.3125 L14.375,9.6875 L18.4375,9.6875 L18.4375,10.3125 Z M18.4375,11.5625 L14.375,11.5625 L14.375,10.9375 L18.4375,10.9375 L18.4375,11.5625 Z" id="Shape" fill="#FFAF38"></path>
                        <path d="M1.25,21.25 L1.8125,21.25 L30,1.8125 L30,1.25 C30,0.5625 29.4375,0 28.75,0 L1.25,0 C0.5625,0 0,0.5625 0,1.25 L0,20 C0,20.6875 0.5625,21.25 1.25,21.25 Z" id="Shape" fill="#FFFFFF" opacity="0.05"></path>
                    </g>
                </g>
                <g id="credit-cards_visa" transform="translate(38.000000, 0.000000)">
                    <g id="Layer_1">
                        <g id="Group">
                            <rect id="Rectangle-path" fill="#F9F9F9" x="0" y="5.29411765" width="30" height="9.41176471"></rect>
                            <path d="M1.25,0 L28.75,0 C29.4375,0 30,0.529411765 30,1.17647059 L30,5.29411765 L0,5.29411765 L0,1.17647059 C0,0.529411765 0.5625,0 1.25,0 Z" id="Shape" fill="#09599E"></path>
                            <path d="M0,14.7058824 L30,14.7058824 L30,18.8235294 C30,19.4705882 29.4375,20 28.75,20 L1.25,20 C0.5625,20 0,19.4705882 0,18.8235294 L0,14.7058824 Z" id="Shape" fill="#E59703"></path>
                            <path d="M1.25,19.9705882 C0.5625,19.9705882 0,19.4411765 0,18.7941176 L0,1.17647059 C0,0.529411765 0.5625,0 1.25,0 L28.75,0 C29.4375,0 30,0.529411765 30,1.17647059" id="Shape" fill="#FFFFFF" opacity="0.05"></path>
                            <g transform="translate(5.312500, 7.352941)" id="Shape">
                                <polygon fill="#00589F" points="6.28125 5.11764706 7.1875 0.147058824 8.625 0.147058824 7.71875 5.11764706"></polygon>
                                <path d="M12.9375,0.294117647 C12.65625,0.205882353 12.21875,0.0882352941 11.65625,0.0882352941 C10.21875,0.0882352941 9.21875,0.764705882 9.21875,1.73529412 C9.21875,2.44117647 9.9375,2.85294118 10.46875,3.08823529 C11.03125,3.32352941 11.21875,3.5 11.21875,3.70588235 C11.21875,4.02941176 10.78125,4.20588235 10.34375,4.20588235 C9.78125,4.20588235 9.46875,4.11764706 9,3.94117647 L8.8125,3.82352941 L8.625,4.94117647 C8.96875,5.08823529 9.59375,5.20588235 10.21875,5.20588235 C11.71875,5.20588235 12.71875,4.52941176 12.71875,3.5 C12.71875,2.94117647 12.34375,2.5 11.5,2.14705882 C11,1.91176471 10.6875,1.76470588 10.6875,1.52941176 C10.6875,1.32352941 10.9375,1.08823529 11.5,1.08823529 C11.96875,1.08823529 12.3125,1.17647059 12.5625,1.26470588 L12.6875,1.32352941 L12.9375,0.294117647" fill="#00589F"></path>
                                <path d="M16.625,0.176470588 L15.5,0.176470588 C15.15625,0.176470588 14.90625,0.264705882 14.75,0.588235294 L12.625,5.14705882 L14.125,5.14705882 C14.125,5.14705882 14.375,4.52941176 14.4375,4.41176471 L16.28125,4.41176471 C16.3125,4.58823529 16.46875,5.14705882 16.46875,5.14705882 L17.8125,5.14705882 L16.625,0.176470588 L16.625,0.176470588 Z M14.84375,3.35294118 C14.96875,3.05882353 15.40625,1.97058824 15.40625,1.97058824 C15.40625,1.97058824 15.53125,1.67647059 15.59375,1.5 L15.6875,1.94117647 C15.6875,1.94117647 15.96875,3.11764706 16.03125,3.38235294 L14.84375,3.38235294 L14.84375,3.35294118 Z" fill="#00589F"></path>
                                <path d="M5.0625,0.176470588 L3.65625,3.55882353 L3.5,2.88235294 C3.25,2.08823529 2.40625,1.23529412 1.5,0.794117647 L2.8125,5.11764706 L4.34375,5.11764706 L6.625,0.147058824 L5.0625,0.147058824" fill="#00589F"></path>
                                <path d="M2.34375,0.147058824 L0.03125,0.147058824 L0,0.264705882 C1.8125,0.676470588 3,1.67647059 3.5,2.85294118 L3,0.588235294 C2.9375,0.264705882 2.65625,0.176470588 2.34375,0.147058824" fill="#F9A51A"></path>
                            </g>
                        </g>
                    </g>
                </g>
                <g id="credit-cards_amex" transform="translate(76.000000, 0.000000)">
                    <g id="Layer_1">
                        <path d="M1.25,0 L28.75,0 C29.4375,0 30,0.529411765 30,1.17647059 L30,18.8235294 C30,19.4705882 29.4375,20 28.75,20 L1.25,20 C0.5625,20 0,19.4705882 0,18.8235294 L0,1.17647059 C0,0.529411765 0.5625,0 1.25,0 Z" id="Shape" fill="#2AA0D0"></path>
                        <path d="M20.625,7.64705882 L16.875,7.64705882 C16.71875,7.64705882 16.5625,7.76470588 16.5625,7.91176471 C16.5625,7.76470588 16.40625,7.64705882 16.25,7.64705882 L14.4375,7.64705882 C14.3125,7.64705882 14.1875,7.70588235 14.15625,7.82352941 L13.15625,10.1764706 L11.90625,7.79411765 C11.84375,7.70588235 11.75,7.61764706 11.625,7.61764706 L10,7.61764706 C9.8125,7.61764706 9.6875,7.73529412 9.6875,7.91176471 L9.6875,10.6764706 L8.3125,7.79411765 C8.25,7.67647059 8.15625,7.61764706 8.03125,7.61764706 L6.375,7.61764706 C6.25,7.61764706 6.15625,7.67647059 6.09375,7.79411765 L3.9375,12.2058824 C3.90625,12.2941176 3.90625,12.4117647 3.96875,12.5 C4.03125,12.5882353 4.125,12.6470588 4.21875,12.6470588 L5.5625,12.6470588 C5.6875,12.6470588 5.8125,12.5882353 5.84375,12.4705882 L6.3125,11.4705882 L8.03125,11.4705882 L8.46875,12.4705882 C8.53125,12.5882353 8.625,12.6470588 8.75,12.6470588 L11.25,12.6470588 C11.4375,12.6470588 11.5625,12.5294118 11.5625,12.3529412 L11.5625,10.6764706 L12.34375,12.4705882 C12.40625,12.5882353 12.5,12.6470588 12.625,12.6470588 L13.59375,12.6470588 C13.71875,12.6470588 13.84375,12.5882353 13.875,12.4705882 L14.6875,10.6470588 L14.6875,12.3529412 C14.6875,12.5294118 14.8125,12.6470588 15,12.6470588 L16.25,12.6470588 C16.40625,12.6470588 16.5625,12.5294118 16.5625,12.3823529 C16.5625,12.5294118 16.71875,12.6470588 16.875,12.6470588 L20.625,12.6470588 C20.8125,12.6470588 20.9375,12.5294118 20.9375,12.3529412 L20.9375,11.4705882 C20.9375,11.2941176 20.8125,11.1764706 20.625,11.1764706 L18.4375,11.1764706 L18.4375,10.8823529 L20.5625,10.8823529 C20.75,10.8823529 20.875,10.7647059 20.875,10.5882353 L20.875,9.70588235 C20.875,9.52941176 20.75,9.41176471 20.5625,9.41176471 L18.4375,9.41176471 L18.4375,9.11764706 L20.625,9.11764706 C20.8125,9.11764706 20.9375,9 20.9375,8.82352941 L20.9375,7.94117647 C20.9375,7.79411765 20.78125,7.64705882 20.625,7.64705882 Z M6.90625,10 L7.1875,9.41176471 L7.46875,10 L6.90625,10 Z" id="Shape" fill="#2AA0D0"></path>
                        <path d="M25.84375,11.4411765 L24.59375,10.1764706 L25.84375,8.91176471 C25.90625,8.85294118 25.9375,8.79411765 25.9375,8.70588235 L25.9375,7.94117647 C25.9375,7.85294118 25.90625,7.79411765 25.84375,7.73529412 C25.78125,7.67647059 25.71875,7.64705882 25.625,7.64705882 L24.78125,7.64705882 C24.6875,7.64705882 24.59375,7.67647059 24.53125,7.73529412 L23.4375,8.97058824 L22.3125,7.76470588 C22.25,7.67647059 22.1875,7.64705882 22.09375,7.64705882 L21.25,7.64705882 C21.0625,7.64705882 20.9375,7.76470588 20.9375,7.94117647 L20.9375,12.3529412 C20.9375,12.5294118 21.0625,12.6470588 21.25,12.6470588 L22,12.6470588 C22.09375,12.6470588 22.15625,12.6176471 22.21875,12.5588235 L23.40625,11.3823529 L24.59375,12.5588235 C24.65625,12.6176471 24.75,12.6470588 24.8125,12.6470588 L25.625,12.6470588 C25.71875,12.6470588 25.78125,12.6176471 25.84375,12.5588235 C25.90625,12.5 25.9375,12.4411765 25.9375,12.3529412 L25.9375,11.6470588 C25.9375,11.5588235 25.90625,11.5 25.84375,11.4411765 Z M21.5625,10.8823529 L21.5625,9.44117647 L22.28125,10.1470588 L21.5625,10.8823529 Z" id="Shape" fill="#2AA0D0"></path>
                        <polygon id="Shape" fill="#FFFFFF" points="6.4375 10.2941176 7.9375 10.2941176 7.1875 8.70588235"></polygon>
                        <polygon id="Shape" fill="#FFFFFF" points="21.25 11.6470588 22.71875 10.1764706 21.25 8.70588235"></polygon>
                        <path d="M26.09375,11.2352941 L25.03125,10.1764706 L26.09375,9.11764706 C26.1875,9 26.25,8.85294118 26.25,8.70588235 L26.25,7.94117647 C26.25,7.79411765 26.1875,7.64705882 26.0625,7.52941176 C25.9375,7.41176471 25.78125,7.35294118 25.625,7.35294118 L24.78125,7.35294118 C24.59375,7.35294118 24.4375,7.41176471 24.3125,7.55882353 L23.4375,8.5 L22.5625,7.55882353 C22.4375,7.44117647 22.28125,7.35294118 22.09375,7.35294118 L21.25,7.35294118 C21.125,7.35294118 21.03125,7.38235294 20.9375,7.44117647 C20.84375,7.38235294 20.75,7.35294118 20.625,7.35294118 L16.875,7.35294118 C16.75,7.35294118 16.65625,7.38235294 16.5625,7.44117647 C16.46875,7.38235294 16.375,7.35294118 16.25,7.35294118 L14.4375,7.35294118 C14.1875,7.35294118 13.9375,7.5 13.84375,7.73529412 L13.09375,9.5 L12.15625,7.70588235 C12.0625,7.5 11.84375,7.38235294 11.59375,7.38235294 L10,7.38235294 C9.65625,7.38235294 9.375,7.64705882 9.375,7.97058824 L9.375,9.35294118 L8.59375,7.73529412 C8.5,7.52941176 8.28125,7.38235294 8.03125,7.38235294 L6.375,7.38235294 C6.125,7.38235294 5.90625,7.52941176 5.8125,7.73529412 L3.65625,12.1470588 C3.5625,12.3235294 3.59375,12.5294118 3.6875,12.7058824 C3.8125,12.8823529 4,12.9705882 4.21875,12.9705882 L5.5625,12.9705882 C5.8125,12.9705882 6.03125,12.8235294 6.125,12.6176471 L6.5,11.7941176 L7.8125,11.7941176 L8.15625,12.6176471 C8.25,12.8529412 8.46875,13 8.75,13 L11.25,13 C11.59375,13 11.875,12.7352941 11.875,12.4117647 L11.875,12.2058824 L12.0625,12.6470588 C12.15625,12.8529412 12.375,13 12.625,13 L13.59375,13 C13.84375,13 14.0625,12.8529412 14.1875,12.6470588 L14.375,12.2058824 L14.375,12.3529412 C14.375,12.6764706 14.65625,12.9411765 15,12.9411765 L16.25,12.9411765 C16.375,12.9411765 16.46875,12.9117647 16.5625,12.8529412 C16.65625,12.9117647 16.75,12.9411765 16.875,12.9411765 L20.625,12.9411765 C20.75,12.9411765 20.84375,12.9117647 20.9375,12.8529412 C21.03125,12.9117647 21.125,12.9411765 21.25,12.9411765 L22,12.9411765 C22.15625,12.9411765 22.34375,12.8823529 22.46875,12.7647059 L23.4375,11.7941176 L24.40625,12.7647059 C24.53125,12.8823529 24.6875,12.9411765 24.875,12.9411765 L25.625,12.9411765 C25.78125,12.9411765 25.9375,12.8823529 26.0625,12.7647059 C26.1875,12.6470588 26.25,12.5 26.25,12.3529412 L26.25,11.6470588 C26.25,11.5 26.1875,11.3529412 26.09375,11.2352941 Z M16.25,12.3529412 L15,12.3529412 L15,9.14705882 L13.59375,12.3529412 L12.625,12.3529412 L11.25,9.17647059 L11.25,12.3529412 L8.75,12.3529412 L8.25,11.1764706 L6.125,11.1764706 L5.59375,12.3529412 L4.25,12.3529412 L6.40625,7.94117647 L8.0625,7.94117647 L10.03125,12.0588235 L10.03125,7.94117647 L11.625,7.94117647 L13.1875,10.9117647 L14.4375,7.94117647 L16.25,7.94117647 L16.25,12.3529412 Z M20.625,8.82352941 L18.125,8.82352941 L18.125,9.70588235 L20.5625,9.70588235 L20.5625,10.5882353 L18.125,10.5882353 L18.125,11.4705882 L20.625,11.4705882 L20.625,12.3529412 L16.875,12.3529412 L16.875,7.94117647 L20.625,7.94117647 L20.625,8.82352941 Z M24.875,12.3529412 L23.4375,10.9411765 L22,12.3529412 L21.25,12.3529412 L21.25,7.94117647 L22.09375,7.94117647 L23.4375,9.41176471 L24.78125,7.94117647 L25.625,7.94117647 L25.625,8.70588235 L24.15625,10.1764706 L25.625,11.6470588 L25.625,12.3529412 L24.875,12.3529412 Z" id="Shape" fill="#FFFFFF"></path>
                        <path d="M1.25,20 L1.8125,20 L30,1.70588235 L30,1.17647059 C30,0.529411765 29.4375,0 28.75,0 L1.25,0 C0.5625,0 0,0.529411765 0,1.17647059 L0,18.8235294 C0,19.4705882 0.5625,20 1.25,20 Z" id="Shape" fill="#FFFFFF" opacity="0.05"></path>
                    </g>
                </g>
            </g>
        </g>
    </g>
</svg>